<svg xmlns="http://www.w3.org/2000/svg" viewBox="0 0 334.08 41"><defs><style>.cls-1{fill:#58595b;}.cls-2{fill:#003964;}.cls-3{fill:#ed193a;}.cls-4{fill:#bcbbbb;}.cls-5{fill:#2462af;}</style></defs><g id="레이어_2" data-name="레이어 2"><g id="병기_가로형" data-name="병기 가로형"><path class="cls-1" d="M57.79,31.86V29.62h-6.1V27.93H65.83v1.69H59.71v2.24h5v5.36H62.78V33.53H52.66V31.86Zm6.87-9.74V26.7H62.74V23.81h-10V22.12Z"/><path class="cls-1" d="M76.66,30.1h-8.3V25.41h6.23V23.88H68.36V22.25h8.13V27H70.26v1.55h6.4Zm-7.43.81h1.88v1.28H79.4V30.91h1.88v6h-12ZM79.4,33.74H71.11v1.55H79.4Zm0-11.93h1.91v8.58H79.37Z"/><path class="cls-1" d="M90,30.84v-.93H83.9V28.27H98v1.64H91.92v.93a4.42,4.42,0,0,1,.55.17,4.3,4.3,0,0,1,1.23.78,3.69,3.69,0,0,1,.82,1.13,3.11,3.11,0,0,1,.31,1.39,3.17,3.17,0,0,1-.31,1.39,3.64,3.64,0,0,1-.82,1.12,3.88,3.88,0,0,1-1.23.77,4,4,0,0,1-3,0,3.73,3.73,0,0,1-1.22-.77,3.67,3.67,0,0,1-.83-1.12,3.17,3.17,0,0,1-.31-1.39,3.11,3.11,0,0,1,.31-1.39,3.72,3.72,0,0,1,.83-1.13A4.11,4.11,0,0,1,89.47,31,4.26,4.26,0,0,1,90,30.84Zm7-7.22H91.85l5.48,2.89-.88,1.42L91,25l-5.5,2.92-.86-1.42,5.48-2.89H84.9V22H97ZM93,34.31a1.82,1.82,0,0,0-.59-1.37,2,2,0,0,0-2.78,0,1.89,1.89,0,0,0,0,2.74,2,2,0,0,0,2.78,0A1.83,1.83,0,0,0,93,34.31Z"/><path class="cls-1" d="M108.13,25.82a3.44,3.44,0,0,1-.34,1.54,4.21,4.21,0,0,1-.89,1.24,4.13,4.13,0,0,1-1.32.84,4.06,4.06,0,0,1-1.59.31,4.11,4.11,0,0,1-1.6-.31,4,4,0,0,1-1.31-.84,4.1,4.1,0,0,1-.91-1.24,3.61,3.61,0,0,1,0-3.06,3.87,3.87,0,0,1,.91-1.24,4.33,4.33,0,0,1,1.31-.84,4.11,4.11,0,0,1,1.6-.31,4.06,4.06,0,0,1,1.59.31,4.5,4.5,0,0,1,1.32.84,4,4,0,0,1,.89,1.24A3.42,3.42,0,0,1,108.13,25.82Zm-1.85,0A2.29,2.29,0,0,0,104,23.55a2.17,2.17,0,0,0-1.62.67,2.33,2.33,0,0,0,0,3.25,2.2,2.2,0,0,0,1.62.66,2.23,2.23,0,0,0,1.62-.66A2.2,2.2,0,0,0,106.28,25.84Zm5.5,8a3.64,3.64,0,0,1-.32,1.5,4.06,4.06,0,0,1-.87,1.21,4.36,4.36,0,0,1-1.3.85,4.18,4.18,0,0,1-3.16,0,4.29,4.29,0,0,1-1.31-.85,3.92,3.92,0,0,1-.88-1.21,3.5,3.5,0,0,1-.33-1.5,3.56,3.56,0,0,1,.33-1.5,3.66,3.66,0,0,1,.88-1.2,4.29,4.29,0,0,1,1.31-.85,4.18,4.18,0,0,1,3.16,0,4.36,4.36,0,0,1,1.3.85,3.78,3.78,0,0,1,.87,1.2A3.71,3.71,0,0,1,111.78,33.82Zm-1.86,0a2.24,2.24,0,0,0-2.22-2.21,2.1,2.1,0,0,0-1.56.66,2.17,2.17,0,0,0,0,3.1,2.16,2.16,0,0,0,1.56.64,2.2,2.2,0,0,0,1.57-.64A2.11,2.11,0,0,0,109.92,33.81ZM112.47,30h-1.89V21.81h1.89v3.08h2.21v1.9h-2.21Z"/><path class="cls-1" d="M117.25,30.55V22.6h11.86v1.67h-10v4.61h10v1.67h-5v3.81h6.12v1.69H116.11V34.36h6.11V30.55Z"/><path class="cls-1" d="M136.89,21.91l5,12.43-1.71.74-3.33-8.43-3.31,8.55-1.72-.75Zm6.9,6.86h-3V27.08h3V21.81h1.91V37.19h-1.91Z"/><path class="cls-1" d="M158.07,29.34V31h-10V29.34h3.12V25.91h1.9v3.43Zm-2.75-1.46V23.79h-6.55V22.12h8.43v5.76Zm-6.15,9.05V32.31h1.91v2.93h10.35v1.69Zm12-5h-1.91V21.81h1.91v4.13h2v1.75h-2Z"/><path class="cls-2" d="M31.65,19.56a7.39,7.39,0,0,0-10.51,2.21,7.4,7.4,0,0,1-13.38-2h0s0,0,0-.08l0-.09a9.61,9.61,0,0,1-.37-2.94c0-6.63,6.8-14,16.6-14A18.68,18.68,0,0,1,41.19,14.5a2,2,0,0,1-.07-.23A21.13,21.13,0,0,0,0,21.13C0,31.56,7.52,40.48,18,40.48A17,17,0,0,0,34.44,29.39,8.16,8.16,0,0,0,31.65,19.56Z"/><path class="cls-3" d="M41.32,14.91A18.63,18.63,0,0,0,23.94,2.61c-9.8,0-16.6,7.39-16.6,14a9.61,9.61,0,0,0,.37,2.94,6.64,6.64,0,0,1-.19-1.51c0-6.91,6.91-11.69,14-11.69A17.42,17.42,0,0,1,39,23.79,19.19,19.19,0,0,1,28.32,41h0A21.14,21.14,0,0,0,42.25,21.13,20.8,20.8,0,0,0,41.32,14.91Z"/><path class="cls-1" d="M62.17,11.2v1.25H57.69v1.77H56.25V12.45H51.69V11.2ZM52.53,10V5.66h8.79V10ZM54,13.26v2.21h7.51v1.25H52.53V13.26Zm6-6.39h-6v2h6Z"/><path class="cls-1" d="M70.79,15.78H63.31V14.54h3V13.12a3.56,3.56,0,0,1-.39-.13,3,3,0,0,1-.89-.55,2.52,2.52,0,0,1-.6-.82,2.27,2.27,0,0,1-.22-1,2.24,2.24,0,0,1,.22-1,2.63,2.63,0,0,1,.6-.82,2.78,2.78,0,0,1,.89-.55,3,3,0,0,1,2.15,0,2.8,2.8,0,0,1,.87.55,3,3,0,0,1,.61.82,2.39,2.39,0,0,1,.22,1,2.42,2.42,0,0,1-.22,1,2.88,2.88,0,0,1-.61.82,3,3,0,0,1-.87.55,2.3,2.3,0,0,1-.42.14v1.41h3.13ZM66.21,6.65V5.44h1.54V6.65h2.77V7.87H63.44V6.65Zm2.19,4a1.32,1.32,0,0,0-.41-1,1.44,1.44,0,0,0-2,0,1.39,1.39,0,1,0,2.4,1Zm4.6,6.3H71.59V5.51H73v5h1.46v1.37H73Z"/><path class="cls-1" d="M75.08,7.87V6.65H77.5V5.44H79V6.65h2.28V7.87H78.68L81.39,15l-1.24.43-1.9-5.17-1.9,5.26-1.28-.41,2.72-7.27Zm7.13-2.34h1.32V16.85H82.21V11.34H80.73V10.05h1.48Zm2.39,0H86v11.4H84.6Z"/><path class="cls-1" d="M97,13.42v3.52H95.58v-2.3H87.94V13.42h1.81V12.09h-2.4V10.87H97.84v1.22H95.42v1.33ZM95.41,7.85a2.3,2.3,0,0,1-.23,1,3,3,0,0,1-.6.85,3.33,3.33,0,0,1-.89.55,2.93,2.93,0,0,1-2.18,0,3.1,3.1,0,0,1-.9-.55,3,3,0,0,1-.6-.85,2.17,2.17,0,0,1-.23-1,2.23,2.23,0,0,1,.23-1,3.08,3.08,0,0,1,.6-.84,2.77,2.77,0,0,1,.9-.57,2.93,2.93,0,0,1,2.18,0,3,3,0,0,1,.89.57,3.08,3.08,0,0,1,.6.84A2.37,2.37,0,0,1,95.41,7.85Zm-4.36,5.57h3.07V12.09H91.07Zm3-5.57a1.28,1.28,0,0,0-.42-1,1.37,1.37,0,0,0-1-.41,1.41,1.41,0,0,0-1,.41,1.28,1.28,0,0,0-.42,1,1.32,1.32,0,0,0,.42,1,1.41,1.41,0,0,0,1,.41,1.37,1.37,0,0,0,1-.41A1.32,1.32,0,0,0,94,7.85Z"/><path class="cls-1" d="M106.11,11v1.24H99.3V11h2.3V8.49h1.34V11Zm-1.78-1.05V7H99.62V5.75h6.09V9.92Zm-3.1,3.2v2.31h7.88v1.25h-9.3V13.12Zm7.57-.51h-1.42V5.51h1.42V8.3h1.46V9.65H108.8Z"/><path class="cls-1" d="M113.53,10.41V8.18h1.34v2.23H118V11.6h-6.81V10.41Zm2.73-1V7h-4.71V5.75h6.09V9.39Zm3.45,5.26a2.18,2.18,0,0,1-.23,1,2.74,2.74,0,0,1-.61.83,2.78,2.78,0,0,1-.88.57,3,3,0,0,1-2.2,0,2.83,2.83,0,0,1-.89-.57,2.74,2.74,0,0,1-.61-.83,2.31,2.31,0,0,1-.22-1,2.38,2.38,0,0,1,.22-1,2.83,2.83,0,0,1,.61-.85,3,3,0,0,1,.89-.55,3,3,0,0,1,2.2,0,2.92,2.92,0,0,1,.88.55,2.83,2.83,0,0,1,.61.85A2.25,2.25,0,0,1,119.71,14.65Zm-1.39,0a1.34,1.34,0,0,0-.42-1,1.38,1.38,0,0,0-1-.42,1.42,1.42,0,0,0-1,.42,1.34,1.34,0,0,0-.42,1,1.32,1.32,0,0,0,.42,1,1.44,1.44,0,0,0,1,.4,1.4,1.4,0,0,0,1-.4A1.32,1.32,0,0,0,118.32,14.64Zm2.42-2.85h-1.42V5.51h1.42V7.84h1.45V9.17h-1.45Z"/><path class="cls-1" d="M123,12.71h10.48V14h-4.54V16.9h-1.42V14H123Zm2.23-5.57h6V5.7h1.4v5.48h-8.79V5.7h1.39Zm6,1.23h-6V9.94h6Z"/><rect class="cls-4" x="176.48" y="21.93" width="0.82" height="15.55"/><path class="cls-5" d="M199.72,27.93v1.54h-13.1V27.93h5.06V25.61h1.77v2.32ZM196.87,27V23.77h-9.24V22.23h11V27Zm0,6.4a3.23,3.23,0,0,1-.29,1.34,3.43,3.43,0,0,1-.79,1.08,4.19,4.19,0,0,1-1.18.76,3.66,3.66,0,0,1-1.41.28,3.76,3.76,0,0,1-1.43-.28,4,4,0,0,1-1.17-.76,3.17,3.17,0,0,1-.8-1.08,3.09,3.09,0,0,1-.3-1.34,3,3,0,0,1,.3-1.33,3.42,3.42,0,0,1,.8-1.09,4.15,4.15,0,0,1,1.17-.74,3.76,3.76,0,0,1,1.43-.28,3.66,3.66,0,0,1,1.41.28,4.35,4.35,0,0,1,1.18.74,3.72,3.72,0,0,1,.79,1.09A3.12,3.12,0,0,1,196.85,33.38Zm-1.77,0a1.83,1.83,0,0,0-.55-1.34,1.92,1.92,0,0,0-2.71,0,1.87,1.87,0,0,0,0,2.69,1.91,1.91,0,0,0,3.26-1.35Z"/><path class="cls-5" d="M214.65,27.93v1.54h-13.1V27.93h5.06V25.61h1.77v2.32ZM211.8,27V23.77h-9.24V22.23h11V27Zm0,6.4a3.23,3.23,0,0,1-.29,1.34,3.43,3.43,0,0,1-.79,1.08,4.19,4.19,0,0,1-1.18.76,3.66,3.66,0,0,1-1.41.28,3.76,3.76,0,0,1-1.43-.28,4,4,0,0,1-1.17-.76,3.17,3.17,0,0,1-.8-1.08,3.09,3.09,0,0,1-.3-1.34,3,3,0,0,1,.3-1.33,3.42,3.42,0,0,1,.8-1.09,4.15,4.15,0,0,1,1.17-.74,3.76,3.76,0,0,1,1.43-.28,3.66,3.66,0,0,1,1.41.28,4.35,4.35,0,0,1,1.18.74,3.72,3.72,0,0,1,.79,1.09A3.12,3.12,0,0,1,211.78,33.38Zm-1.77,0a1.83,1.83,0,0,0-.55-1.34,1.92,1.92,0,0,0-2.71,0,1.87,1.87,0,0,0,0,2.69A1.91,1.91,0,0,0,210,33.38Z"/><path class="cls-5" d="M217.53,30V22.68h11v1.55h-9.24v4.26h9.27V30h-4.65v3.54h5.67v1.57h-13.1V33.58h5.65V30Z"/><path class="cls-5" d="M235.73,22l4.67,11.52-1.58.69-3.09-7.83-3.06,7.94-1.61-.7Zm6.4,6.36h-2.8V26.83h2.8V21.94h1.77V36.2h-1.77Z"/><path class="cls-5" d="M255.36,28.93v1.55h-9.25V28.93H249V25.74h1.75v3.19Zm-2.54-1.36v-3.8h-6.07V22.23h7.82v5.34ZM247.12,36V31.68h1.77V34.4h9.59V36Zm11.1-4.65h-1.76V21.94h1.76v3.83h1.84v1.62h-1.84Z"/><path class="cls-5" d="M261.09,24.38V22.82h8.58v1.56h-3.59L270,33.71l-1.56.67-3-7.29-3,7.4-1.62-.68,3.94-9.43ZM272,21.94h1.77V36.2H272Z"/><path class="cls-5" d="M285.61,30.5h-3.78v2.16h-1.77V30.5h-3.93V28.94h9.48ZM277.1,36V31.88h1.77v2.53h9.8V36Zm7.25-10.89a3,3,0,0,1-.29,1.29,3.62,3.62,0,0,1-.76,1.06,3.89,3.89,0,0,1-1.14.7,3.79,3.79,0,0,1-2.76,0,3.89,3.89,0,0,1-1.14-.7,3.62,3.62,0,0,1-.76-1.06,3,3,0,0,1,0-2.57,3.62,3.62,0,0,1,.76-1.06,3.89,3.89,0,0,1,1.14-.7,3.79,3.79,0,0,1,2.76,0,3.89,3.89,0,0,1,1.14.7,3.62,3.62,0,0,1,.76,1.06A3,3,0,0,1,284.35,25.06Zm-1.72,0a1.67,1.67,0,0,0-.55-1.27,1.86,1.86,0,0,0-2.6,0,1.75,1.75,0,0,0,0,2.55,1.86,1.86,0,0,0,2.6,0A1.68,1.68,0,0,0,282.63,25.06Zm4.11-3.12h1.77V32.82h-1.77V27.57h-2V26h2Z"/><path class="cls-5" d="M295.45,22l4.66,11.52-1.57.69-3.09-7.83-3.06,7.94-1.61-.7Zm6.4,6.36h-2.8V26.83h2.8V21.94h1.77V36.2h-1.77Z"/><path class="cls-5" d="M306.58,22.72h1.75v3.57h3.9V22.72H314V34.23h-7.37Zm5.65,5.1h-3.9v4.87h3.9Zm4.55-5.88h1.77V36.2h-1.77Z"/><path class="cls-5" d="M334.08,33.58v1.57H321V33.58Zm-6.55-8.65L322.79,31l-1.38-1,6.12-7.83L333.66,30l-1.38,1Z"/></g></g></svg>